<svg xmlns="http://www.w3.org/2000/svg" width="1000" height="300" viewBox="-3 -6 112 40" fill="none">
  <path d="M0 26.3148V9.7749H10.401V13.0985H3.71463V16.1484H9.89265V19.4329H3.71463V23.0303H10.401V26.3539H0V26.3148Z" fill="#1F2353"/>
  <path d="M24.36 17.9471L29.365 26.3539H25.4549L22.2485 20.8797L19.0422 26.3539H15.1321L20.1371 17.9471L15.3276 9.7749H19.2377L22.2876 14.9754L25.2985 9.7749H29.2086L24.36 17.9471Z" fill="#1F2353"/>
  <path d="M33.666 26.3148V9.7749H44.067V13.0985H37.4197V16.1484H43.5978V19.4329H37.4197V23.0303H44.1061V26.3539H33.666V26.3148Z" fill="#1F2353"/>
  <path d="M72.7282 26.3148H65.6899V9.7749H72.2199C75.6608 9.7749 76.9511 11.1826 76.9511 13.4113V15.0927C76.9511 16.2657 76.4428 17.126 75.1134 17.7125C76.4819 18.0253 77.5377 19.2374 77.5377 20.7624V22.3656C77.5377 24.7116 76.0518 26.3148 72.7282 26.3148ZM73.1974 13.9588C73.1974 13.2549 72.7673 12.7857 71.7116 12.7857H69.4046V16.5785H71.7116C72.6891 16.5785 73.1974 16.0702 73.1974 15.4055V13.9588ZM73.7839 20.8797C73.7839 19.9413 73.1974 19.472 72.2199 19.472H69.4046V23.3431H71.7116C72.8846 23.3431 73.7839 23.1085 73.7839 21.8963V20.8797V20.8797Z" fill="#1F2353"/>
  <path d="M83.3638 26.3148V9.7749H87.0784V26.3148H83.3638Z" fill="#1F2353"/>
  <path d="M99.7085 26.3148H93.2959V9.7749H99.7085C103.775 9.7749 105.3 11.8473 105.3 14.0761V22.0136C105.3 24.2424 103.775 26.3148 99.7085 26.3148ZM101.585 15.0927C101.585 13.8023 101.155 13.0985 99.2784 13.0985H97.0496V23.0303H99.2784C101.155 23.0303 101.585 22.3265 101.585 21.0361V15.0927Z" fill="#1F2353"/>
  <path d="M53.921 22.5224V5.5524H57.5183L52.005 0L46.4526 5.5524H50.0891V22.5224V26.3152H53.921H60.4118V22.5224H53.921Z" fill="#1D52A3"/>
</svg>